<?xml version="1.0" encoding="UTF-8"?>
<svg id="uuid-df8ceb72-c7c2-449c-a929-7ccdbd513068" data-name="Layer 2" xmlns="http://www.w3.org/2000/svg" viewBox="0 0 76 71.15">
  <g id="uuid-4233477f-7954-47fb-9dba-a53af99b1857" data-name="Layer 2">
    <polygon points="66.3 19.4 66.3 8.89 52.55 8.89 52.55 0 25.87 0 25.87 10.51 9.7 10.51 9.7 22.64 4.04 22.64 4.04 35.57 0 35.57 0 53.36 9.7 53.36 9.7 62.26 21.83 62.26 21.83 64.68 21.83 71.15 36.38 71.15 36.38 58.21 30.72 58.21 30.72 55.79 26.68 55.79 26.68 49.32 21.83 49.32 21.83 37.19 25.06 37.19 25.06 25.06 31.53 25.06 31.53 16.17 42.04 16.17 42.04 24.26 53.36 24.26 53.36 38 49.32 38 49.32 43.66 45.28 43.66 45.28 38 42.85 38 42.85 29.91 33.96 29.91 33.96 38 30.72 38 30.72 47.57 35 47.57 35 51.74 38 51.74 38 54.17 42.04 54.17 42.04 59.83 59.02 59.83 59.02 55.79 68.72 55.79 68.72 42.04 76 42.04 76 19.4 66.3 19.4"/>
  </g>
</svg>