<?xml version="1.0" encoding="UTF-8"?>
<svg id="uuid-0aa688fb-427d-416c-9206-bcdb493cad20" data-name="Layer 2" xmlns="http://www.w3.org/2000/svg" viewBox="0 0 545.17 157.4">
  <defs>
    <style>
      .uuid-9a628b96-2974-40ea-9e84-e659739a83e2 {
        font-family: Redaction20-Bold, 'Redaction 20';
        font-size: 120px;
        font-weight: 700;
      }

      .uuid-b4552b59-d84b-4cbb-907d-a7cafb188ebe {
        letter-spacing: -.02em;
      }

      .uuid-4a05acc2-4d6b-4ea0-b862-e44832320c79 {
        letter-spacing: 0em;
      }
    </style>
  </defs>
  <g id="uuid-83151a69-05d3-479c-be32-cb69284007be" data-name="Layer 1">
    <text class="uuid-9a628b96-2974-40ea-9e84-e659739a83e2" transform="translate(130.87 123.1)"><tspan class="uuid-b4552b59-d84b-4cbb-907d-a7cafb188ebe" x="0" y="0">N</tspan><tspan class="uuid-4a05acc2-4d6b-4ea0-b862-e44832320c79" x="93.6" y="0">auti</tspan></text>
  </g>
  <g id="uuid-2867a2f1-fdf7-44b0-b5e3-5cf7d5018ef4" data-name="Layer 2">
    <polygon points="87.23 60.72 87.23 46.89 69.15 46.89 69.15 35.19 34.04 35.19 34.04 49.02 12.77 49.02 12.77 64.98 5.32 64.98 5.32 82 0 82 0 105.4 12.77 105.4 12.77 117.11 28.72 117.11 28.72 120.3 28.72 128.81 47.87 128.81 47.87 111.79 40.43 111.79 40.43 108.6 35.11 108.6 35.11 100.09 28.72 100.09 28.72 84.13 32.98 84.13 32.98 68.17 41.49 68.17 41.49 56.47 55.32 56.47 55.32 67.11 70.21 67.11 70.21 85.19 64.89 85.19 64.89 92.64 59.57 92.64 59.57 85.19 56.38 85.19 56.38 74.55 44.68 74.55 44.68 85.19 40.43 85.19 40.43 97.79 46.05 97.79 46.05 103.28 50 103.28 50 106.47 55.32 106.47 55.32 113.91 77.66 113.91 77.66 108.6 90.43 108.6 90.43 90.51 100 90.51 100 60.72 87.23 60.72"/>
  </g>
</svg>